<?xml version="1.0" standalone="no"?><!DOCTYPE svg PUBLIC "-//W3C//DTD SVG 1.1//EN" "http://www.w3.org/Graphics/SVG/1.1/DTD/svg11.dtd"><svg t="1762929454510" class="icon" viewBox="0 0 1024 1024" version="1.1" xmlns="http://www.w3.org/2000/svg" p-id="3581" xmlns:xlink="http://www.w3.org/1999/xlink" width="200" height="200"><path d="M677.225412 392.854588H415.623529l6.144 68.427294h249.253647l-18.913882 205.583059-140.167529 38.068706-140.047059-38.068706-9.999059-107.52h68.848941l4.818824 55.958588L512 635.482353l76.378353-20.178824L596.329412 528.263529H359.122824l-19.275295-202.450823h344.244706l-6.866823 66.981647z" p-id="3582"></path><path d="M747.821176 114.447059a90.352941 90.352941 0 0 1 90.051765 97.641412l-45.658353 561.814588a90.352941 90.352941 0 0 1-64.090353 79.269647l-190.162823 57.103059a90.352941 90.352941 0 0 1-51.983059 0l-190.162824-57.103059a90.352941 90.352941 0 0 1-64.090353-79.269647L186.127059 212.088471a90.352941 90.352941 0 0 1 90.051765-97.581177h471.642352z m-471.642352 60.235294a30.117647 30.117647 0 0 0-30.117648 32.527059l45.778824 561.814588a30.117647 30.117647 0 0 0 21.323294 26.443294l190.162824 57.163294a30.117647 30.117647 0 0 0 17.287529 0l190.162824-57.223529a30.117647 30.117647 0 0 0 21.383529-26.383059l45.718588-561.814588a30.117647 30.117647 0 0 0-30.117647-32.527059h-471.642353z" p-id="3583"></path></svg>